<svg width="37" height="36" viewBox="0 0 37 36" fill="none" xmlns="http://www.w3.org/2000/svg">
<g clip-path="url(#clip0_3_169)">
<path d="M35.4643 3.84979H2.03571C1.32455 3.84979 0.75 4.42435 0.75 5.13551V30.8498C0.75 31.561 1.32455 32.1355 2.03571 32.1355H35.4643C36.1754 32.1355 36.75 31.561 36.75 30.8498V5.13551C36.75 4.42435 36.1754 3.84979 35.4643 3.84979ZM3.64286 6.74265H33.8571V11.5641H3.64286V6.74265ZM33.8571 29.2427H3.64286V15.0998H33.8571V29.2427ZM24.3348 26.6712H30.9643C31.1411 26.6712 31.2857 26.5266 31.2857 26.3498V23.4569C31.2857 23.2802 31.1411 23.1355 30.9643 23.1355H24.3348C24.158 23.1355 24.0134 23.2802 24.0134 23.4569V26.3498C24.0134 26.5266 24.158 26.6712 24.3348 26.6712Z" fill="#FFFFFC"/>
</g>
<defs>
<clipPath id="clip0_3_169">
<rect width="36" height="36" fill="white" transform="translate(0.75)"/>
</clipPath>
</defs>
</svg>
