<svg width="37" height="36" viewBox="0 0 37 36" fill="none" xmlns="http://www.w3.org/2000/svg">
<g clip-path="url(#clip0_3_172)">
<path d="M35.1352 4.01666H1.70661C0.995452 4.01666 0.420898 4.59122 0.420898 5.30238V31.0167C0.420898 31.7278 0.995452 32.3024 1.70661 32.3024H35.1352C35.8463 32.3024 36.4209 31.7278 36.4209 31.0167V5.30238C36.4209 4.59122 35.8463 4.01666 35.1352 4.01666ZM33.528 29.4095H3.31376V6.90952H33.528V29.4095ZM7.05438 26.1028C7.17893 26.2274 7.38384 26.2274 7.5084 26.1028L14.4392 19.172L19.0356 23.7725C19.1602 23.897 19.3651 23.897 19.4896 23.7725L31.4227 11.8314C31.5472 11.7068 31.5472 11.5019 31.4227 11.3774L29.9441 9.89881C29.8837 9.83899 29.8021 9.80543 29.7171 9.80543C29.6321 9.80543 29.5505 9.83899 29.4901 9.89881L19.2646 20.1283L14.6682 15.5278C14.6078 15.468 14.5262 15.4344 14.4412 15.4344C14.3562 15.4344 14.2746 15.468 14.2142 15.5278L5.57983 24.1662C5.52001 24.2266 5.48645 24.3082 5.48645 24.3932C5.48645 24.4782 5.52001 24.5598 5.57983 24.6202L7.05438 26.1028Z" fill="#FFFFFC"/>
</g>
<defs>
<clipPath id="clip0_3_172">
<rect width="36" height="36" fill="white" transform="translate(0.5)"/>
</clipPath>
</defs>
</svg>
