<svg width="36" height="36" viewBox="0 0 36 36" fill="none" xmlns="http://www.w3.org/2000/svg">
<g clip-path="url(#clip0_3_459)">
<path d="M35.4598 17.7164L19.9348 2.19944L18.8941 1.15881C18.657 0.923271 18.3364 0.791077 18.0022 0.791077C17.668 0.791077 17.3473 0.923271 17.1102 1.15881L0.544586 17.7164C0.301631 17.9584 0.109619 18.2466 -0.0201151 18.5641C-0.149849 18.8815 -0.214677 19.2217 -0.210771 19.5646C-0.1947 20.9789 0.982533 22.1079 2.39682 22.1079H4.10441V35.1941H31.8999V22.1079H33.6437C34.3307 22.1079 34.9776 21.8387 35.4638 21.3526C35.7032 21.1139 35.8928 20.8302 36.0218 20.5178C36.1508 20.2054 36.2165 19.8705 36.2151 19.5325C36.2151 18.8494 35.9459 18.2026 35.4598 17.7164ZM20.2522 32.3012H15.7522V24.1048H20.2522V32.3012ZM29.0071 19.2151V32.3012H22.8236V23.1405C22.8236 22.2526 22.1044 21.5334 21.2165 21.5334H14.7879C13.8999 21.5334 13.1807 22.2526 13.1807 23.1405V32.3012H6.99726V19.2151H3.14012L18.0062 4.36104L18.9343 5.28917L32.8682 19.2151H29.0071Z" fill="#FFFFFC"/>
</g>
<defs>
<clipPath id="clip0_3_459">
<rect width="36" height="36" fill="white"/>
</clipPath>
</defs>
</svg>
