<svg width="36" height="37" viewBox="0 0 36 37" fill="none" xmlns="http://www.w3.org/2000/svg">
<g clip-path="url(#clip0_61_123)">
<path d="M25.3925 16.8214H19.2854V10.7143C19.2854 10.5375 19.1408 10.3928 18.964 10.3928H17.0354C16.8586 10.3928 16.714 10.5375 16.714 10.7143V16.8214H10.6068C10.43 16.8214 10.2854 16.966 10.2854 17.1428V19.0714C10.2854 19.2482 10.43 19.3928 10.6068 19.3928H16.714V25.5C16.714 25.6768 16.8586 25.8214 17.0354 25.8214H18.964C19.1408 25.8214 19.2854 25.6768 19.2854 25.5V19.3928H25.3925C25.5693 19.3928 25.714 19.2482 25.714 19.0714V17.1428C25.714 16.966 25.5693 16.8214 25.3925 16.8214Z" fill="#C0CDFE"/>
<path d="M18 0.105225C8.05982 0.105225 0 8.16505 0 18.1052C0 28.0454 8.05982 36.1052 18 36.1052C27.9402 36.1052 36 28.0454 36 18.1052C36 8.16505 27.9402 0.105225 18 0.105225ZM18 33.0517C9.74732 33.0517 3.05357 26.3579 3.05357 18.1052C3.05357 9.85255 9.74732 3.1588 18 3.1588C26.2527 3.1588 32.9464 9.85255 32.9464 18.1052C32.9464 26.3579 26.2527 33.0517 18 33.0517Z" fill="#C0CDFE"/>
</g>
<defs>
<clipPath id="clip0_61_123">
<rect width="36" height="36" fill="white" transform="translate(0 0.105225)"/>
</clipPath>
</defs>
</svg>
