<svg width="36" height="36" viewBox="0 0 36 36" fill="none" xmlns="http://www.w3.org/2000/svg">
<g clip-path="url(#clip0_3_43)">
<path d="M9.48276 10.6071C9.48276 11.2465 9.73674 11.8597 10.1888 12.3118C10.6409 12.7639 11.2541 13.0179 11.8935 13.0179C12.5328 13.0179 13.146 12.7639 13.5981 12.3118C14.0502 11.8597 14.3042 11.2465 14.3042 10.6071C14.3042 9.96778 14.0502 9.35461 13.5981 8.90251C13.146 8.45041 12.5328 8.19643 11.8935 8.19643C11.2541 8.19643 10.6409 8.45041 10.1888 8.90251C9.73674 9.35461 9.48276 9.96778 9.48276 10.6071ZM31.6613 0H4.3399C3.62874 0 3.05418 0.574554 3.05418 1.28571V27.8036C3.05418 28.5147 3.62874 29.0893 4.3399 29.0893H31.6613C32.3725 29.0893 32.947 28.5147 32.947 27.8036V1.28571C32.947 0.574554 32.3725 0 31.6613 0ZM30.3756 26.5179H5.62561V2.57143H30.3756V26.5179ZM21.697 10.6071C21.697 11.2465 21.951 11.8597 22.4031 12.3118C22.8552 12.7639 23.4684 13.0179 24.1078 13.0179C24.7471 13.0179 25.3603 12.7639 25.8124 12.3118C26.2645 11.8597 26.5185 11.2465 26.5185 10.6071C26.5185 9.96778 26.2645 9.35461 25.8124 8.90251C25.3603 8.45041 24.7471 8.19643 24.1078 8.19643C23.4684 8.19643 22.8552 8.45041 22.4031 8.90251C21.951 9.35461 21.697 9.96778 21.697 10.6071ZM31.7497 32.9464H4.25151C3.58856 32.9464 3.05418 33.521 3.05418 34.2321V35.6786C3.05418 35.8554 3.18677 36 3.35151 36H32.6457C32.8104 36 32.943 35.8554 32.943 35.6786V34.2321C32.947 33.521 32.4127 32.9464 31.7497 32.9464ZM24.1078 17.8393H11.8935C11.7167 17.8393 11.572 17.9839 11.572 18.1607V20.5714C11.572 20.7482 11.7167 20.8929 11.8935 20.8929H24.1078C24.2845 20.8929 24.4292 20.7482 24.4292 20.5714V18.1607C24.4292 17.9839 24.2845 17.8393 24.1078 17.8393Z" fill="black" fill-opacity="0.85"/>
</g>
<defs>
<clipPath id="clip0_3_43">
<rect width="36" height="36" fill="white"/>
</clipPath>
</defs>
</svg>
