<svg width="20" height="20" viewBox="0 0 20 20" fill="none" xmlns="http://www.w3.org/2000/svg">
<path d="M6.31361 0.699755C9.5916 -0.626881 13.5641 -0.0392437 16.2871 2.22524C15.6208 2.64816 14.9991 3.13934 14.3802 3.62607C12.5609 2.42705 10.2594 1.95961 8.13729 2.51015C5.91295 3.05624 3.97781 4.65443 3.01483 6.73197C2.2965 8.20106 2.13189 9.90311 2.42269 11.5028C2.87831 13.7628 4.39042 15.7869 6.44415 16.8405C8.29316 17.8318 10.5636 17.9816 12.5387 17.2872C15.6149 16.2395 17.8616 13.0906 17.7013 9.8215C18.4002 9.26207 19.1437 8.75897 19.856 8.2159C20.224 10.4432 19.8871 12.7983 18.7861 14.7793C17.4921 17.1744 15.1771 19.0041 12.5357 19.6733C10.2059 20.2891 7.65211 20.0294 5.50337 18.9358C3.08902 17.7293 1.20443 15.5034 0.429827 12.9155C-0.254289 10.6644 -0.120735 8.16987 0.823069 6.01376C1.85874 3.61271 3.87846 1.65244 6.31361 0.699755ZM10.0309 9.76956C12.6618 7.80485 15.3107 5.86084 17.964 3.92582C18.3928 4.55501 18.8454 5.18865 19.114 5.90687C16.0912 8.15654 13.0432 10.3795 10.0101 12.6172C8.74726 11.8263 7.48591 11.0339 6.22012 10.2489C6.20377 9.28878 6.22307 8.32863 6.20823 7.36854C7.468 8.19061 8.74726 8.98458 10.0309 9.76956Z" fill="#21A038"/>
</svg>
