<svg width="37" height="36" viewBox="0 0 37 36" fill="none" xmlns="http://www.w3.org/2000/svg">
<path d="M30.7945 25.5553C29.7888 24.5489 28.6137 23.7274 27.323 23.1285C29.1431 21.654 30.3043 19.404 30.3043 16.8808C30.3043 12.429 26.5918 8.77676 22.14 8.84507C17.7565 8.91337 14.2248 12.4852 14.2248 16.8808C14.2248 19.404 15.39 21.654 17.2061 23.1285C15.9152 23.7269 14.74 24.5485 13.7347 25.5553C11.5409 27.7531 10.2954 30.654 10.215 33.7477C10.2139 33.7906 10.2215 33.8333 10.2371 33.8732C10.2528 33.9132 10.2763 33.9495 10.3063 33.9802C10.3362 34.0109 10.372 34.0353 10.4116 34.052C10.4511 34.0687 10.4935 34.0772 10.5364 34.0772H12.7864C12.9592 34.0772 13.1039 33.9406 13.1079 33.7678C13.1842 31.4375 14.1284 29.2558 15.7878 27.6004C16.6369 26.7468 17.6469 26.07 18.7594 25.6093C19.8718 25.1486 21.0645 24.9131 22.2686 24.9165C24.7155 24.9165 27.0177 25.8687 28.7494 27.6004C30.4047 29.2558 31.3489 31.4375 31.4293 33.7678C31.4333 33.9406 31.578 34.0772 31.7507 34.0772H34.0007C34.0436 34.0772 34.0861 34.0687 34.1256 34.052C34.1651 34.0353 34.2009 34.0109 34.2309 33.9802C34.2609 33.9495 34.2844 33.9132 34.3 33.8732C34.3157 33.8333 34.3232 33.7906 34.3222 33.7477C34.2418 30.654 32.9963 27.7531 30.7945 25.5553ZM22.2686 22.0236C20.8945 22.0236 19.6007 21.4893 18.6324 20.5169C18.1465 20.0348 17.7626 19.4598 17.5038 18.8261C17.2449 18.1924 17.1163 17.513 17.1257 16.8286C17.1378 15.5107 17.6641 14.237 18.5842 13.2928C19.5485 12.3044 20.8382 11.754 22.2164 11.7379C23.5784 11.7259 24.9003 12.2562 25.8726 13.2085C26.869 14.1848 27.4155 15.4906 27.4155 16.8808C27.4155 18.2549 26.8811 19.5446 25.9088 20.5169C25.4317 20.9963 24.8644 21.3762 24.2396 21.6348C23.6147 21.8935 22.9448 22.0256 22.2686 22.0236ZM12.2039 17.9415C12.1677 17.5919 12.1476 17.2384 12.1476 16.8808C12.1476 16.2419 12.2079 15.6192 12.3204 15.0125C12.3485 14.8678 12.2722 14.7192 12.1396 14.6589C11.5931 14.4138 11.0909 14.0763 10.657 13.6504C10.1457 13.1547 9.74331 12.5577 9.47559 11.8978C9.20786 11.2378 9.08065 10.5293 9.10207 9.81739C9.13823 8.52766 9.65653 7.30221 10.5605 6.3781C11.553 5.36159 12.8869 4.80712 14.3052 4.82319C15.5869 4.83525 16.8244 5.32944 17.7605 6.20534C18.078 6.50266 18.3512 6.83212 18.5802 7.18569C18.6605 7.31025 18.8172 7.36248 18.9539 7.31426C19.661 7.06918 20.4083 6.89641 21.1757 6.81605C21.4007 6.79194 21.5293 6.55087 21.4289 6.34998C20.123 3.7665 17.4552 1.98257 14.3695 1.93435C9.91367 1.86605 6.20117 5.51828 6.20117 9.96605C6.20117 12.4893 7.36233 14.7393 9.18242 16.2138C7.90475 16.8044 6.72751 17.6201 5.70698 18.6406C3.50519 20.8384 2.25966 23.7393 2.1793 26.837C2.17823 26.8799 2.18575 26.9226 2.20142 26.9625C2.21709 27.0024 2.2406 27.0388 2.27055 27.0695C2.30051 27.1002 2.33631 27.1246 2.37584 27.1413C2.41537 27.1579 2.45783 27.1665 2.50073 27.1665H4.75475C4.92751 27.1665 5.07216 27.0299 5.07617 26.8571C5.15251 24.5268 6.09671 22.3451 7.75609 20.6897C8.93734 19.5085 10.3838 18.6888 11.9628 18.291C12.1195 18.2509 12.2239 18.1022 12.2039 17.9415Z" fill="#FFFFFC"/>
</svg>
