<svg width="22" height="22" viewBox="0 0 22 22" fill="none" xmlns="http://www.w3.org/2000/svg">
<path d="M15.0834 14.1958C15.6776 13.8766 16.3577 13.6949 17.0821 13.6949H17.0845C17.1582 13.6949 17.1925 13.6065 17.1385 13.5574C16.3853 12.8814 15.5248 12.3354 14.5923 11.9418C14.5825 11.9369 14.5727 11.9344 14.5629 11.9295C16.0876 10.8222 17.0796 9.02239 17.0796 6.99181C17.0796 3.62797 14.3591 0.902527 11.0026 0.902527C7.64611 0.902527 4.92803 3.62797 4.92803 6.99181C4.92803 9.02239 5.92 10.8222 7.44723 11.9295C7.43741 11.9344 7.42759 11.9369 7.41777 11.9418C6.32022 12.4059 5.33562 13.0713 4.48852 13.9208C3.64632 14.7615 2.97581 15.7581 2.51442 16.855C2.06045 17.9291 1.81545 19.0799 1.79254 20.2458C1.79189 20.272 1.79648 20.2981 1.80606 20.3225C1.81564 20.3469 1.83 20.3692 1.84831 20.3879C1.86661 20.4067 1.88849 20.4216 1.91265 20.4318C1.93681 20.4419 1.96276 20.4472 1.98897 20.4472H3.45973C3.56531 20.4472 3.6537 20.3612 3.65616 20.2557C3.70527 18.3601 4.46397 16.5849 5.80705 15.2394C7.19433 13.8472 9.04076 13.0811 11.005 13.0811C12.3972 13.0811 13.7329 13.4666 14.8845 14.1885C14.9141 14.2071 14.948 14.2175 14.983 14.2188C15.0179 14.2201 15.0525 14.2122 15.0834 14.1958ZM11.005 11.215C9.88049 11.215 8.82223 10.7755 8.02424 9.97753C7.63161 9.58592 7.32035 9.1205 7.10839 8.60807C6.89642 8.09565 6.78794 7.54635 6.78919 6.99181C6.78919 5.8648 7.2287 4.80409 8.02424 4.0061C8.81977 3.20811 9.87803 2.7686 11.005 2.7686C12.1321 2.7686 13.1879 3.20811 13.9858 4.0061C14.3785 4.3977 14.6897 4.86313 14.9017 5.37555C15.1137 5.88798 15.2221 6.43728 15.2209 6.99181C15.2209 8.11882 14.7814 9.17954 13.9858 9.97753C13.1879 10.7755 12.1296 11.215 11.005 11.215ZM20.0358 17.0588H17.9733V14.9963C17.9733 14.8882 17.885 14.7998 17.7769 14.7998H16.4019C16.2939 14.7998 16.2055 14.8882 16.2055 14.9963V17.0588H14.143C14.035 17.0588 13.9466 17.1472 13.9466 17.2552V18.6302C13.9466 18.7382 14.035 18.8266 14.143 18.8266H16.2055V20.8891C16.2055 20.9972 16.2939 21.0856 16.4019 21.0856H17.7769C17.885 21.0856 17.9733 20.9972 17.9733 20.8891V18.8266H20.0358C20.1439 18.8266 20.2323 18.7382 20.2323 18.6302V17.2552C20.2323 17.1472 20.1439 17.0588 20.0358 17.0588Z" fill="#C0CDFE"/>
</svg>
