<svg width="18" height="18" viewBox="0 0 18 18" fill="none" xmlns="http://www.w3.org/2000/svg">
<path d="M12.34 11.8784C12.8261 11.6172 13.3826 11.4685 13.9752 11.4685H13.9772C14.0375 11.4685 14.0656 11.3962 14.0214 11.356C13.4051 10.8029 12.7011 10.3562 11.9382 10.0342C11.9301 10.0301 11.9221 10.0281 11.9141 10.0241C13.1616 9.11809 13.9732 7.64554 13.9732 5.98416C13.9732 3.23193 11.7473 1.00201 9.00112 1.00201C6.25491 1.00201 4.03103 3.23193 4.03103 5.98416C4.03103 7.64554 4.84264 9.11809 6.09219 10.0241C6.08415 10.0281 6.07612 10.0301 6.06808 10.0342C5.17009 10.4138 4.36451 10.9583 3.67143 11.6534C2.98235 12.3412 2.43376 13.1566 2.05625 14.054C1.68483 14.9329 1.48437 15.8744 1.46563 16.8284C1.46509 16.8498 1.46885 16.8711 1.47669 16.8911C1.48452 16.9111 1.49628 16.9293 1.51125 16.9446C1.52623 16.96 1.54413 16.9722 1.5639 16.9805C1.58366 16.9888 1.60489 16.9931 1.62634 16.9931H2.82969C2.91607 16.9931 2.98839 16.9228 2.9904 16.8364C3.03058 15.2855 3.65134 13.833 4.75022 12.7322C5.88527 11.5931 7.39598 10.9663 9.00313 10.9663C10.1422 10.9663 11.235 11.2817 12.1772 11.8723C12.2014 11.8875 12.2292 11.8961 12.2578 11.8972C12.2864 11.8982 12.3147 11.8917 12.34 11.8784ZM9.00313 9.43952C8.08304 9.43952 7.21719 9.07992 6.56429 8.42702C6.24305 8.10661 5.98838 7.72581 5.81496 7.30655C5.64153 6.8873 5.55277 6.43787 5.5538 5.98416C5.5538 5.06206 5.91339 4.1942 6.56429 3.5413C7.21518 2.8884 8.08103 2.5288 9.00313 2.5288C9.92523 2.5288 10.7891 2.8884 11.442 3.5413C11.7632 3.86171 12.0179 4.24251 12.1913 4.66176C12.3647 5.08102 12.4535 5.53045 12.4525 5.98416C12.4525 6.90626 12.0929 7.77411 11.442 8.42702C10.7891 9.07992 9.92322 9.43952 9.00313 9.43952ZM16.392 14.2208H11.5705C11.4821 14.2208 11.4098 14.2931 11.4098 14.3815V15.5065C11.4098 15.5949 11.4821 15.6672 11.5705 15.6672H16.392C16.4804 15.6672 16.5527 15.5949 16.5527 15.5065V14.3815C16.5527 14.2931 16.4804 14.2208 16.392 14.2208Z" fill="black" fill-opacity="0.85"/>
</svg>
